<?xml version="1.0" standalone="no"?>
<!DOCTYPE svg PUBLIC "-//W3C//DTD SVG 20010904//EN"
 "http://www.w3.org/TR/2001/REC-SVG-20010904/DTD/svg10.dtd">
<svg version="1.0" xmlns="http://www.w3.org/2000/svg"
 width="2400.000000pt" height="2400.000000pt" viewBox="0 0 2400.000000 2400.000000"
 preserveAspectRatio="xMidYMid meet">
<metadata>
Created by potrace 1.14, written by Peter Selinger 2001-2017
</metadata>
<g transform="translate(0.000000,2400.000000) scale(0.100000,-0.100000)"
fill="#000000" stroke="none">
<path d="M11887 19274 c-1 -1 -139 -5 -307 -9 -168 -4 -327 -8 -355 -10 -27
-2 -106 -6 -175 -9 -135 -7 -221 -12 -370 -22 -52 -3 -120 -8 -150 -9 -78 -5
-197 -14 -250 -19 -25 -3 -75 -7 -112 -10 -174 -15 -205 -18 -228 -21 -14 -2
-59 -7 -100 -10 -41 -3 -86 -8 -100 -10 -14 -3 -50 -7 -80 -10 -30 -3 -71 -7
-90 -10 -19 -2 -62 -7 -95 -11 -33 -3 -67 -8 -75 -9 -9 -2 -43 -6 -75 -10 -33
-4 -68 -9 -78 -11 -10 -2 -45 -6 -78 -9 -33 -4 -70 -8 -82 -11 -26 -5 -203
-30 -271 -39 -27 -3 -52 -8 -55 -9 -3 -2 -28 -7 -56 -10 -27 -4 -113 -18 -190
-31 -77 -13 -153 -27 -170 -29 -16 -3 -55 -10 -85 -16 -30 -6 -111 -22 -180
-35 -69 -13 -134 -26 -145 -29 -11 -2 -56 -11 -100 -20 -136 -28 -383 -85
-530 -122 -77 -20 -147 -37 -155 -39 -85 -18 -574 -161 -780 -227 -965 -311
-1769 -686 -2475 -1153 -433 -287 -713 -513 -1060 -855 -397 -390 -688 -758
-965 -1220 -86 -143 -275 -518 -334 -665 -27 -66 -55 -133 -62 -150 -113 -269
-285 -895 -320 -1170 -3 -27 -8 -52 -9 -55 -2 -3 -6 -33 -10 -65 -3 -33 -8
-67 -10 -75 -2 -8 -7 -37 -10 -65 -3 -27 -8 -63 -10 -80 -2 -16 -7 -66 -10
-110 -4 -44 -9 -87 -10 -96 -3 -16 -15 -185 -20 -299 -5 -95 -5 -567 0 -620 2
-25 6 -81 9 -125 8 -132 35 -374 51 -465 2 -14 13 -79 24 -145 12 -66 23 -131
26 -145 8 -32 12 -51 29 -130 55 -257 165 -614 281 -910 104 -267 311 -697
422 -872 12 -21 23 -40 23 -42 0 -2 39 -67 86 -143 315 -505 667 -941 1104
-1368 171 -167 362 -336 530 -470 41 -33 77 -62 80 -65 35 -39 590 -430 610
-430 4 0 10 -4 12 -8 2 -5 35 -28 73 -51 39 -23 120 -72 181 -109 275 -166
699 -386 989 -512 66 -28 139 -60 163 -71 124 -56 440 -178 637 -245 72 -25
139 -49 150 -54 11 -4 29 -10 40 -13 11 -3 106 -32 212 -66 205 -65 238 -74
553 -157 184 -48 509 -125 593 -139 18 -4 52 -11 77 -16 25 -6 56 -13 70 -15
14 -3 88 -17 165 -31 77 -14 149 -27 160 -28 11 -2 47 -8 80 -14 33 -6 76 -13
95 -16 19 -3 46 -8 60 -10 14 -3 45 -7 70 -10 25 -3 74 -10 110 -16 36 -6 81
-12 100 -15 19 -2 55 -6 80 -10 25 -3 61 -7 80 -10 19 -2 49 -6 65 -9 17 -2
57 -7 90 -10 33 -3 76 -8 95 -10 46 -6 111 -13 190 -20 36 -4 76 -8 90 -10 24
-3 106 -10 265 -20 39 -3 93 -7 120 -9 481 -42 1449 -51 2220 -21 167 6 394
16 445 20 30 2 114 6 185 10 72 3 150 8 175 10 43 3 158 11 305 20 39 2 102 7
140 10 39 3 97 7 130 10 164 12 223 16 258 20 21 2 77 7 125 10 48 3 98 8 112
10 14 2 59 6 100 10 41 3 95 7 120 10 25 2 72 7 105 10 33 3 80 7 105 10 25 3
74 7 110 10 36 3 76 7 90 9 14 3 57 8 95 11 39 3 81 8 95 10 14 2 54 7 90 10
36 3 79 7 95 9 17 2 59 7 95 11 36 3 76 8 90 10 14 2 54 7 90 10 36 3 76 8 90
10 14 2 50 7 80 10 30 3 66 8 80 10 14 2 52 7 85 10 33 3 71 7 84 10 13 2 49
7 80 11 75 8 96 10 161 19 76 10 87 11 150 19 30 4 102 14 160 22 58 8 123 17
145 20 22 3 67 9 100 14 33 5 83 12 110 15 28 3 61 8 75 10 14 2 90 13 170 25
79 11 156 22 170 24 14 3 45 8 70 11 25 4 54 9 65 11 20 4 72 11 135 20 19 3
58 9 85 14 28 5 66 11 85 14 63 8 234 35 290 46 30 6 71 13 90 16 56 7 54 7
405 69 143 25 343 62 445 81 102 20 196 38 210 40 14 2 45 9 70 14 25 5 56 12
70 14 14 2 36 7 50 10 14 3 36 8 50 10 14 2 45 9 70 15 25 5 59 12 75 15 17 3
82 17 145 31 63 15 125 28 137 31 308 62 839 211 948 267 76 38 160 101 226
167 55 56 78 91 140 214 41 81 203 402 360 714 157 312 355 704 439 872 85
168 165 322 178 343 28 47 158 305 201 402 18 39 36 77 41 86 35 64 164 403
180 472 25 114 42 414 65 1137 26 853 27 2905 0 3585 -9 243 -16 386 -19 422
-2 21 -7 79 -11 128 -3 50 -8 101 -10 115 -2 14 -8 52 -14 85 -5 33 -27 105
-49 161 -67 168 -265 611 -398 893 -30 62 -54 115 -54 117 0 2 -28 61 -61 131
-34 70 -73 153 -86 183 -14 30 -50 107 -80 170 -31 63 -73 153 -95 200 -22 47
-72 150 -110 230 -39 80 -100 206 -135 280 -98 203 -307 621 -370 738 -99 185
-233 297 -437 366 -42 14 -290 76 -359 90 -12 3 -81 18 -153 35 -72 17 -141
33 -155 35 -13 3 -24 5 -24 6 0 1 -7 3 -15 5 -15 3 -126 27 -145 31 -5 1 -21
4 -35 7 -14 3 -110 23 -215 45 -198 43 -422 89 -465 96 -14 2 -47 9 -75 15
-27 6 -61 13 -75 15 -14 3 -36 7 -50 10 -106 24 -887 167 -984 181 -21 3 -48
7 -60 10 -12 3 -34 7 -51 10 -179 30 -285 48 -310 52 -16 2 -68 11 -115 18
-47 8 -116 19 -155 25 -38 5 -81 12 -95 15 -14 3 -43 7 -65 10 -22 3 -51 7
-64 10 -13 2 -49 7 -80 11 -31 3 -59 8 -62 10 -3 2 -30 6 -60 9 -30 3 -79 10
-109 15 -30 5 -73 11 -95 14 -86 11 -132 17 -190 26 -33 5 -87 12 -119 16 -33
3 -69 8 -80 10 -12 2 -41 6 -66 9 -25 3 -61 8 -80 10 -44 6 -91 12 -155 20
-89 11 -108 13 -210 25 -55 6 -113 13 -130 15 -16 2 -57 7 -90 10 -58 6 -101
10 -175 20 -19 2 -60 7 -90 9 -30 3 -78 8 -106 11 -28 3 -71 7 -95 9 -25 2
-67 7 -94 10 -28 3 -81 8 -120 11 -38 3 -88 8 -110 10 -22 2 -71 7 -110 10
-38 3 -97 8 -130 10 -228 18 -369 28 -715 50 -72 4 -260 13 -420 20 -307 13
-1263 27 -1273 19z"/>
<path d="M22251 6875 c-1 -5 -8 -40 -16 -77 -7 -37 -21 -107 -29 -155 -9 -49
-18 -99 -21 -113 -7 -34 -25 -129 -31 -160 -4 -24 -7 -40 -19 -100 -12 -60
-33 -185 -32 -186 3 -3 60 -6 83 -5 20 1 23 11 39 114 9 61 19 121 20 132 2
11 9 54 16 95 12 76 15 101 18 133 2 29 16 19 36 -25 10 -24 33 -76 52 -116
18 -41 33 -75 33 -78 0 -2 15 -37 33 -76 18 -40 44 -99 58 -130 13 -32 27 -58
31 -58 4 0 10 10 14 22 6 20 25 63 79 183 7 17 23 53 36 80 12 28 32 73 44
100 13 28 31 68 40 90 20 47 19 51 44 -100 27 -158 30 -171 41 -230 14 -73 18
-98 19 -116 1 -13 13 -18 47 -21 25 -2 48 0 50 4 2 4 -4 46 -15 95 -11 48 -22
99 -24 113 -8 45 -48 234 -57 270 -5 19 -11 52 -14 74 -4 21 -8 42 -11 46 -2
3 -6 20 -9 36 -3 16 -10 52 -16 79 -6 28 -11 59 -11 69 0 10 -4 15 -8 10 -5
-5 -62 -141 -127 -301 -65 -161 -121 -293 -124 -293 -3 0 -25 46 -50 103 -24
56 -70 163 -103 237 -32 74 -66 153 -76 175 -34 79 -40 90 -40 80z"/>
<path d="M21615 6803 l0 -38 95 -5 95 -5 -1 -335 0 -335 30 -5 c17 -4 36 -5
41 -3 6 2 10 125 10 343 l0 340 96 0 97 0 4 28 c2 16 2 34 0 40 -3 9 -69 12
-236 12 l-232 0 1 -37z"/>
</g>
</svg>
